<?xml version="1.0" encoding="UTF-8"?>
<svg id="Camada_1" xmlns="http://www.w3.org/2000/svg" version="1.1" viewBox="0 0 1938.9 430.9">
  <!-- Generator: Adobe Illustrator 29.0.0, SVG Export Plug-In . SVG Version: 2.1.0 Build 186)  -->
  <defs>
    <style>
      .st0 {
        fill: #D46429;
      }
    </style>
  </defs>
  <path class="st0" d="M189.1,43.4c3.2.3,6.3.9,9.4,1.3,9.9,1.2,19.8,2.9,29.2,6.3,4.8,1.7,9.5,4.7,12,9.2,3.7,6.7-.6,14.3-7.3,16.7-7,2.5-14.3.9-20.7-2.3-10.1-5-20.7-8.8-31.1-13-10-4-20.4-6.3-31.2-7.2-4.7-.4-9.4-.7-14.1-.6-21.5.5-41.3,6.6-58.4,19.9-8.2,6.3-14.2,14.6-20.5,22.8-6.8,8.8-10.6,18.8-14.4,28.8-2.5,6.6-3.9,13.7-5,20.8-1.6,10-1.8,20-1.8,29.9,0,13,1.2,25.9,4,38.8,2.4,11.4,6.1,22.4,10.6,32.8,5,11.5,11.3,22.6,18.3,33.2,5.5,8.2,11.4,15.9,18.5,22.7,8.2,7.9,17.1,15.3,27.1,20.5,11.4,5.9,23.5,11,36.4,12.8,10.4,1.4,21,2.5,31.6,1.6,24.2-2.1,45.7-11.1,64.2-26.9,10.5-8.9,19.8-18.9,28.1-29.8,1.1-1.5,2.1-3.4,4.4-1.7v2.2c-6.1,11.2-14.7,20.3-23.9,28.9-5.9,5.5-11.8,11.1-18.2,16.1-9.6,7.6-20.1,13.4-31.1,18.4-11,4.9-22.7,7.6-34.5,9.5-5.4.9-10.9,1-16.4,1-1.3,0-1.2,0-4,.2h-6.7c-3.4,0-5.1.3-14.1-.7-10.5-1-20.8-2.8-30.6-6.7-10.9-4.3-21.7-9-31.4-15.7-17.8-12.2-32.1-27.6-42.8-46.3-8.7-15.4-13.8-32-17-49.3-1.8-9.6-2.1-19.3-2.3-29,0-1,.3-2-.4-2.9v-16.5c1-3.1.4-6.4.6-9.6,1.5-22.9,8.7-43.8,20.8-63.2,7.1-11.5,16.2-21,25.7-30.5,11.1-11.1,24.1-18.9,38-25.5,14-6.7,28.7-11.2,44.1-14,10.3-1.9,20.7-2.7,31.1-3.3h24Z"/>
  <path class="st0" d="M780.3,126.2c-.9,4.5-2,8.7-6.9,11-6.4,3.1-12.4,2.6-18.2-1.2-8.3-5.3-16.5-11-26.2-13-8-1.7-16.4-1.8-24.3,1.6-16.7,7.2-30.6,18.1-42,32.1-1.1,1.3-1.4,2.6-1.4,4.2,0,61.3,0,122.6,0,183.8,0,4.6,3.1,7.9,7.9,8,4.6.1,9.2,0,13.8,0,1.4,0,2.8.3,3.5,1.6.7,1.3-1.5,1.1-1.4,2.2-27.9,0-55.8,0-83.7,0-2.6,0-3.6-.6-3-3.1,1.3-1.7,3.2-1.9,5.2-1.9,4.1,0,8.2,0,12.3,0,5.3-.2,7.9-2.8,8.2-8.1,0-1.3,0-2.6,0-3.8,0-66.1,0-132.2,0-198.3,0-1.4,0-2.8,0-4.2-.3-4.4-2.2-5.7-6.4-4-4.8,1.9-9.2,4.5-13.8,6.6-1.8.8-3.8,1.9-5.4-.5v-4.6c1.3-2.3,3.7-3,5.9-4,16.7-7.3,33.2-15.2,49.8-22.7.8-.4,1.6-.7,2.5-1,2.8-1,4.4,0,5.2,2.8.5,1.7.5,3.5.5,5.3,0,9.6,0,19.2,0,28.7,0,1.4-.3,2.8.6,4.4,5.2-3.5,9.6-7.9,14.2-12,13.4-11.7,28-21.2,44.5-27.9,4.6-1.8,9.1-2.3,14.1-2.8,6.4-.1,12.7-.3,19.2,0,3.8.8,7.7.7,11.4,2.4,4.6,2.1,8.3,5.2,11.6,9,2,2.3,2.3,6.4,2.3,7.9v1.5Z"/>
  <path class="st0" d="M977.7,106.3c3.8,1.5,7.8.9,11.7,2,13.6,4,24,12,31.5,23.9,8.8,14,12.1,29.5,12.3,45.6.4,33.4-.2,66.7.4,100.1.3,18.6,2.7,37.1,8.6,54.9,5.4,16.3,13.9,31,24.9,44,7.2,8.5,16,15.6,25.4,21.8,11.7,7.6,24.2,13.7,37.7,16.5,8,1.6,16.2,3,24.5,3.6,8.3.7,16.5.4,24.7-.3,11.6-1,22.8-3.6,33.5-8.4,11.1-5,21.4-11.2,30.3-19.5,8.5-8.1,15-17.5,19.1-28.7,4-11.2,5.7-22.7,4.4-34.3-2-17.6-6.8-34.2-22.3-45.2-6.9-4.9-14.7-7.7-23.2-7.5-8.9.2-18.6,6.6-20.5,12.6-2.4,7.9.6,14.8,8.2,17.8,5.6,2.2,11.4,3.9,16.7,6.9,3.9,2.2,8,4.3,10.1,8.7,4.3,9.2,2.7,17.8-2.6,25.9-5.7,8.9-14.6,13.5-24,17-24.4,9.1-49.5,10.3-74,1.9-22.1-7.6-39.6-21.7-45-45.9-3.3-15.1-2.3-30.3,5.6-44.2,5.6-9.8,13.7-17.2,23.4-23.1,19.5-11.9,41.4-17.2,62.9-23.8,15.2-4.7,30.6-9.4,44-18.5,4.6-3.1,7.5-7.5,10.5-12,3.8-5.7,5.8-12,5.6-18.4-.4-13.4-6-24.5-17.9-31.4-6.4-3.8-13.4-6.9-20.7-8-5.2-.8-10.7-1.9-16.1-.7-4,.9-8.1-.1-12.1,1-8.6,2.5-16.6,6.3-24.3,10.8-6.6,3.9-14.4,3.6-19.5-.7-6-5-6.5-14.5-1.2-20.8,4.8-5.8,11.4-8.7,18.1-11.5,15.2-6.2,31.3-8.6,47.6-9.8,11-.8,22-1,32.9.1,13.3,1.4,26.5,4.2,38.5,10.2,17.6,8.9,33.3,20.3,42.7,38.4,5,9.6,8.3,19.6,8.7,30.4,1.7,48,.3,96.1.6,144.2,0,6.2.1,12.3,1.6,18.3,2.5,10,13.1,15.3,22.8,11.7,3.7-1.4,7.3-2.8,10.8-4.6.9-.5,1.8-.9,2.8-.2v2.2c-.7,1.3-1.7,2.1-3,2.7-14.9,7.8-30.5,11.4-47.1,7.1-9.5-2.5-15.6-9-19.5-17.8-3.8-8.5-4.8-17.6-4.8-26.8,0-53.6,0-107.3,0-160.9,0-11.9-4.1-22.3-11.1-31.6-4.6-6.1-11.8-8.8-18.4-12-7.5-3.5-15.6-4.1-23.8-4.7-11.8-.8-22.3,2.9-32.4,7.7-5.8,2.7-11.4,6.4-16.9,10.5,7.8.4,15.4-.7,22.9.9,13.4,2.7,26.2,7,35.1,18.1,11,13.8,12.6,29,5.9,45.3-5,12.1-15.1,18.7-26,24.7-11.9,6.5-24.4,11.3-36.6,16.9-8.7,4-17.5,8.1-25.5,13.5-16.9,11.4-25.2,27.1-25.4,47.5-.1,12.9,2.7,24.6,10.2,35.3,9.3,13.4,21.9,20.4,37.9,22.6,12,1.6,23.6.3,35-3.7,7-2.4,12.6-6.5,16.6-13,4.9-8.1,4.8-19.3-5.9-24.7-4.1-2.1-8.3-3.9-12.5-5.7-1.7-.7-3.5-1.3-5.1-2.1-13.7-6.4-15.5-23.5-3.5-32.9,7.6-5.9,16.2-7.1,25.3-5.7,18.7,2.9,30.2,14.6,37.3,31.4,4.2,9.9,6.4,20.3,6.5,31,.1,18.5-4.6,35.5-16.2,50.5-12.4,16.2-28.7,26.7-47.4,33.7-13.7,5.1-28,8-42.7,7.9-1.4,0-2.4.2-4.3.4h-12.6c-3.5-.6-7.4,0-11-.4-19.9-2.8-39.6-6.3-57.9-14.9-23.3-10.8-42.3-26.6-56.1-48.5-6.3-10-11.8-20.4-15.5-31.5-5-15.3-8.5-31-9.5-47.1-2.1-35.5-1.1-71.1-1.7-106.7-.4-21.3-8.9-38.9-28.2-49.7-9.7-5.5-20.4-7.3-31.5-5.9-3.8.5-7.6,1.2-11.3,1.9-1.5.3-2.9.6-4.2-.6v-4.4c5.3-4.3,11.9-5.7,18-8.1,6.6-2.5,13.6-2.3,20.5-3.1h17.1Z"/>
  <path class="st0" d="M1000.6,296.8c0-39-1.2-84.2-1.6-123.2-.3-26-20.4-52.5-52-52.1-4.7,0-9.2.4-13.9,1.1-9.9,1.5-17.3,7.4-24.8,13.2-12.6,9.6-20.5,22.6-27.3,36.6-5.9,12.1-9.8,24.9-11.9,38-1.8,11-3.9,21.9-3.5,33.2.6,19,0,38,.2,57,.2,12.5,1.3,24.8,6.7,36.5,2.9,6.4,8,10.2,13.5,13.8,1,.6,2,1.1,3.1,1.6,1.2.6,2.7,1,2.2,2.6-.5,1.5-1.9,2-3.5,1.9-4.9-.1-9.8-.3-14.7-.3-20.8,0-41.5.1-62.3.2-1.9,0-3.9,0-5.5-1.2v-2.3c.7-1.3,1.8-2.2,3.1-2.8,9.9-4.9,15.3-13.2,18-23.5,1.7-6.5,2.3-13.2,2.6-19.9,1.6-36.3.5-72.6.6-108.9,0-11.4-.5-23-3.8-34.1-2.5-8.5-7.7-14.8-15.9-18.4-1.8-.8-3.7-1.3-4.6-3.3v-2.3c.6-1.9,1.8-3.3,3.7-4.1,16.2-7.2,32.1-14.9,48.1-22.5,8.6-4,9.7-3.2,9.7,6.2,0,25.2,0,50.3,0,74.8-.6-2.5.9-5.3,1.9-8.2,6.3-18.8,16-35.6,29.9-49.7,7.6-7.7,16.2-14.2,26.1-19.2,9.5-4.8,19.1-9.2,29.8-10.5,4-.5,8-.8,12-.7,3.9.2,7.9-.3,11.8.3,25.8,2.4,42.1,16.4,50.6,40.7,5,14.2,6.1,28.7,6.1,43.5,0,56.9-2.5,52-2.5,108.8"/>
  <path class="st0" d="M573.4,345.8c-.8-1.5-2.3-.3-3.6.2-3,1.2-5.9,2.6-9,3.4-10.1,2.9-17.6-.3-21.2-9-1.5-3.6-2-7.4-2.2-11.2-.4-11.1.6-22.1.6-33.2,0-16.4-1.2-32.8-.9-49.3,0-6.3.1-12.6.2-18.9.1-18.4,1-36.8-2.1-55.1-2.1-12.2-7.1-23.2-15.6-32.4-6.3-6.9-13.5-12.7-21.7-17.4-5.2-3-16.5-7.5-22.2-9.3-9.5-3-18.3-5.9-28.5-6-3.3,0-4.2,0-4.2,0-16-1.3-29.4.6-43.6,3-8.6,1.5-17.2,3.7-25.4,7-7.7,3.1-14.8,7-19.1,14.2-4.6,7.7-1.4,17.3,8.3,19.8,7.9,2.1,14.3-2,20.7-5.6,9.9-5.7,20.7-7.7,31.8-8,12-.3,23.3,2.7,33.5,9.5,3.7,2.5,7.2,5.5,9.2,9.1,4.1,7.2,6.1,14.9,5.1,23.8-1.5,13.6-9.8,21.6-20.3,27.6l-57.3,22.4c-10.6,2.9-20.8,6.9-30.7,11.4-7.4,3.4-14.5,7.7-20.2,13.8-5,5.4-8.5,11.5-12.1,18.3-1,1.9-1.7,4.6-3.1,9.7-.4-.1-1.2,6-1.2,6.2q-.2,8.6.6,12.9c1.1,6.7,2.5,13.3,5.7,19.2,6.8,12.3,17.1,21.1,29.6,27,8.2,3.9,17.1,5.8,26.1,7,11.3,1.6,22.6.8,33.6-.2,16.4-1.5,30.9-9.2,44.6-18.4,6.5-4.4,13.1-9,17.9-15.1q3.9-4.9,5.8-7.4,4.8-6.3,7.1-10c2.7-4.3,4-8.8,6.5-13.6,1.3-2.4,3.6-9.5,4.5-7.2,1.6,5.7.9,11.3,1.3,16.5.6,10-.2,19.7,1.7,29.5,2.2,11.3,7.7,20.8,18.9,25.5,7.2,3,14.8,3.2,22.6,2,9.2-1.4,17.8-4,25.8-8.6,1.2-.7,3.1-1.5,2.2-3.2ZM502.9,198.5c-.1,7,0,15.4-.3,20.9.4,9.8.3,19.6-.2,29.4-.5,9.6-2.5,18.9-5.5,28.1-1.8,5.3-3.7,10.6-5.9,15.7-10.8,25-27.9,43.7-54.4,52.2-14.2,4.6-28.8,5.2-43.2.7-18.6-5.9-31-17.5-35.8-37.2-3.6-14.8-2-28.6,4.7-42,4.7-9.4,12.6-15.9,21.2-21.5,4.7-3,9.1-6.4,14.2-8.7,12.9-5.8,26.2-10.8,38.4-17.7,9.5-5.4,19.8-10.2,25.8-20.6,2.2-3.8,3.3-7.6,4.2-11.6,2.6-11.8,1.5-23.2-6.2-32.7-7.1-8.8-18.7-17.3-30.5-18.9-2.5-.3-1.8-.1-4.4-.5-7.5-1.1-14.9.5-22.3,1.2-1.2.1-2.7,1-3.3-.3-.6-1.3.9-2.2,1.9-2.8,12.7-7.7,25.5-15,40.4-17.8,18.3-3.4,34.3,1.2,47.9,13.9,9.6,8.9,12.9,20.3,13.2,32.9.1,4.1,0,8.2,0,12.4,0,0,0,0,0,0,0,8.3,0,16.7,0,25Z"/>
  <path class="st0" d="M1337,114.5c1.3-.6,2.7-.7,4.1-.7,26,0,52,0,77.9,0,.5,0,1,0,1.4,0,1.4,0,2.8,0,3.1,1.6.4,1.6-.7,2.2-2,2.8-7.3,3.6-10.1,9.7-10.2,17.5,0,5,1.3,9.8,2.4,14.5,2.6,11.1,8,21.1,12.2,31.6,4.3,10.4,9.4,20.5,13.7,30.9,3.8,9.2,8.1,18.3,12.1,27.4,5.1,11.4,10,22.9,15.3,34.1,5.4,11.5,9.9,23.5,16.1,35.4,3.9-9.6,7.6-18.6,11.3-27.7,16.5-40.6,33.1-81.1,49.5-121.8,4.1-10.2,4.9-20.5-.4-30.7-2.8-5.4-7.9-8-12.9-10.8-3.1-1.7-3.1-3.7,0-5.7,1-.4,2.1-.2,3.2-.2,18.4,0,36.8,0,55.2,0,4,0,4.5.6,3.8,4.6-4.9,2.6-10.2,4.5-14.9,7.6-10.6,7.2-18.6,16.6-23.5,28.3-25.6,60.9-51.1,121.9-76.6,182.9-2.8,6.7-5.7,13.4-8.6,20.1h-2.1c-1.8-1.8-2.7-4.2-3.7-6.4-7.4-16.9-15-33.6-22.8-50.3-6.2-13.2-11.9-26.6-17.9-39.9-8.5-18.9-17.1-37.9-25.6-56.8-6.5-14.3-12.7-28.8-19.5-42.9-5.4-11-11.1-21.8-19.8-30.7-5.2-5.2-11.4-8.5-18.1-11-1-.4-1.8-1-2.7-1.5v-2.1Z"/>
  <path class="st0" d="M1615.9,182.5c58.3.1,116.6,0,174.8.1,2,0,4,0,5.6-1.5v-4.6c-.8-1.8-.3-3.7-.4-5.6,0-3.4,0-6.9-.8-10.2-4.6-19.5-13.6-36-32-46.2-10.5-5.8-21.2-9.5-33.2-9.2,0-.1,0-.3,0-.4h-16c0,.1,0,.3,0,.4-5.7,0-11.4.2-17.1,1.1-11.2,1.9-21.9,5.3-32.1,10.2-12.5,6-24.4,13-35,22-7.7,6.6-14.6,13.9-20.9,22-14.4,18.6-23.8,39.1-28,62.2-.7,3.6-.3,7.3-1,10.9v27.4c.9,3.8.3,7.8,1.2,11.6,4.5,19.8,12.5,37.9,26.5,53.1,11.8,12.9,26,21.7,42.4,27.2,8.4,2.8,17.1,4.3,26,4.9h22.1c3.7-.3,9.1-.9,15.1-2.4q10.6-2.5,16-3.8c17.1-4.4,31.8-13.4,44.1-25.9,22.2-22.6,27.8-49.8,17.4-78.8-10.6-29.6-33.5-45.4-64.9-47.9-9.9-.8-19.2,1.6-25.9,9.9-3.7,4.7-5.5,10-3,15.9,2.6,6.1,6.6,10.3,13.8,10.7,4.6.2,9.1-.3,13.7-.7,14.1-1.2,27.9-.2,40.9,5.7,12.2,5.5,21.7,13.8,24.3,27.6,3.5,17.9-3.5,32.2-17,43.6-11.8,9.9-26,14.7-40.8,17-14.5,2.2-29.2,1.7-43.8-1.7-18.1-4.3-34.3-11.8-47.8-24.7-16.8-15.9-26.6-35.6-31.4-58-1.3-6.3-2-12.8-2.6-19.2-1.2-12.6,0-25.1,2.8-37.4.8-3.6,2.9-5.2,7-5.2ZM1642.4,137.3c9.1-7.2,19.7-11.8,30.5-16.1,12.7-5,25.7-6,38.8-4.7,14.8,1.4,27.1,8.7,36.4,20.7,8.7,11.3,12.3,24.3,13,38.3.1,2.2-.4,3.4-3.2,3.4-48.5,0-97,0-145.6,0,6.1-17,16.5-30.5,30.1-41.4Z"/>
  <path class="st0" d="M1842,357.7c-2.7-4-2.3-5.1,2.2-7.1,5-2.3,9.3-5.4,13.1-9.6,7.5-8.5,9.5-18.8,10.9-29.5.8-6.6.7-13.2.7-19.8,0-36.7,0-73.4,0-110.1,0-11.7-1-23.4-6-34.2-3.4-7.3-8.5-12.7-16.7-14.6-1.3-.3-2.7-.8-3.7-1.7-1.6-1.5-2.1-3.2.3-4.9,4.3-2.9,9.1-4.5,13.7-6.8,13.5-6.6,27.1-12.9,40.7-19.4,7.9-3.8,8.9-3.4,9.2,5.2.2,4.7-.2,9.5-.2,14.2,0,57.4,0,114.8,0,172.2,0,12.8,1.1,25.4,4.8,37.7,3,10.2,9.7,16.9,18.8,21.5,1.3.7,2.7,1.1,4.1,1.6,0,.7-.1,1.5,0,2.2.5,2.6-.5,3.6-3,3-6.7-.9-13.5-.2-20.2-.4-4.3,0-8.5,0-12.8,0-15.8,0-31.6,0-47.4,0-1.3,0-2.7-.4-4,.4h-4.5Z"/>
  <path class="st0" d="M1887.6,5.6c1.5,1.1,2.2,2.6,2.6,4.4,2.8,12.5,10.8,20,23,23.3,1.9.5,3.7.9,3.7,3.6,0,2.9-1.8,3.2-3.8,3.9-11.6,4.1-19.8,11.5-23.2,23.7-.5,1.8-1.1,3.7-3.6,3.2-2.4-.4-3.4-1.8-3.8-4.2-1.7-9.7-8.7-18.9-19.5-21.4-1.6-.4-3.1-1.3-4.6-2-1.4-.6-2.9-1.3-2.7-3,.2-1.8,1.3-3.2,3.1-3.6,3.5-1,6.6-2.9,9.8-4.5,8-4.1,12.5-10.8,13.9-19.5.3-1.9,1.9-2.5,2.4-4h3Z"/>
  <path class="st0" d="M1846.5,357.7c.3-.7.9-.7,1.5-.7,16.7,0,33.4,0,50.1.1.2.2.2.3.2.4,0,.1-.2.2-.2.2h-51.6Z"/>
  <path class="st0" d="M1910.7,357.1c6.1,0,12.3-.1,18.4-.2.7,0,1.5-.2,1.8.8h-20.2c-.2-.1-.3-.3-.2-.4,0-.1.1-.2.2-.2Z"/>
  <path class="st0" d="M1910.7,357.1c0,.2,0,.4,0,.6h-12.7c0-.2,0-.4,0-.6,4.2,0,8.4,0,12.6,0Z"/>
</svg>