<?xml version="1.0" encoding="UTF-8"?>
<svg id="Camada_1" xmlns="http://www.w3.org/2000/svg" version="1.1" viewBox="0 0 100 100">
  <!-- Generator: Adobe Illustrator 29.0.0, SVG Export Plug-In . SVG Version: 2.1.0 Build 186)  -->
  <defs>
    <style>
      .st0 {
        fill: #d46429;
      }

      .st1 {
        fill: #fff;
      }
    </style>
  </defs>
  <rect class="st0" x="1" y="1" width="98" height="98" rx="49" ry="49"/>
  <path class="st1" d="M95.6,77.6c-1,.5-2,.9-3,1.3-2.7,1-5.7-.5-6.4-3.3-.4-1.7-.4-3.4-.5-5.1,0-13.4.3-26.9-.2-40.3-.1-3-1-5.8-2.4-8.5-2.6-5.1-7-8.3-11.9-10.7-3.4-1.7-7-2.5-10.7-2.9-3.1-.3-6.1-.3-9.2,0-4.6.3-9,1-13.3,2.7-1.9.8-3.7,1.6-5.1,3.2-1.5,1.8-1.4,4.4.3,5.8,1.4,1.2,3.6,1.3,5.5.2,2.2-1.3,4.4-2.3,6.8-3,1.1-.3,2.3,0,3.4-.3,1.5-.4,3,0,4.5.2,2.1.3,4,1.2,5.8,2.2,3.3,1.9,4.9,5,5,8.8,0,1.8-.5,3.6-1.6,5.2-.8,1.3-1.7,2.5-2.9,3.4-3.8,2.5-8.1,3.9-12.3,5.2-6,1.9-12.1,3.3-17.6,6.7-2.7,1.7-5,3.7-6.5,6.5-2.2,3.9-2.5,8.1-1.6,12.3,1.5,6.8,6.4,10.7,12.6,12.8,6.8,2.4,13.9,2,20.7-.5,2.6-1,5.1-2.3,6.7-4.7,1.5-2.3,1.9-4.7.7-7.2-.6-1.2-1.7-1.8-2.8-2.4-1.5-.8-3.1-1.3-4.7-1.9-2.1-.8-2.9-2.8-2.3-5,.5-1.7,3.2-3.5,5.7-3.5,2.4,0,4.6.7,6.5,2.1,4.3,3.1,5.7,7.7,6.2,12.6.4,3.2,0,6.5-1.2,9.6-1.1,3.1-3,5.8-5.3,8-2.5,2.3-5.4,4-8.5,5.5-3,1.4-6.1,2.1-9.4,2.4-2.3.2-4.6.3-6.9,0-2.3-.2-4.6-.6-6.8-1-3.8-.8-7.3-2.5-10.5-4.6-2.6-1.7-5.1-3.7-7.1-6.1-3.1-3.6-5.4-7.8-7-12.3-1.7-5-2.3-10.1-2.4-15.3,0-2.4,0-4.7,0-7.1.2-4.5.5-7.8.4-17.2,0-4.1-.3-8.2-1.7-12.1C2.8,14-.1,10.5-4.3,8.8c-.7-.3-1.4-.6-2.2-.8-.4-.1-.8-.2-1.3-.2-.5,0-1.1-.2-1.7-.2-.1,0-.2,0-.3-.1h-4.8c-1.9.2-3.9.2-5.7.9-1.7.7-3.6,1.1-5,2.3v.4c-2.5,1.3-4.6,3-6.6,5-3.9,3.9-6.6,8.6-8.4,13.9-.2.5-.4,1.1-.5,1.6,0-6.6,0-13.4,0-20.2,0-2.6-.3-2.9-2.7-1.7-4.5,2.1-8.9,4.3-13.4,6.3-.5.2-.9.6-1,1.2v.7c.3.5.8.7,1.3.9,2.3,1,3.7,2.8,4.4,5.1.9,3.1,1.1,6.3,1.1,9.5,0,10.1.3,20.3-.2,30.4,0,1.9-.3,3.7-.7,5.6-.8,2.9-2.3,5.2-5,6.6-.4.2-.7.4-.9.8v.7c.5.4,1,.3,1.5.3,5.8,0,11.6,0,17.4,0,1.4,0,2.7,0,4.1,0,.4,0,.8-.1,1-.5.1-.5-.3-.6-.6-.7-.3-.1-.6-.3-.9-.4-1.5-1-2.9-2.1-3.8-3.9-1.5-3.3-1.8-6.7-1.9-10.2,0-5.3,0-10.6,0-15.9,0-3.2.5-6.2,1-9.3.6-3.7,1.7-7.2,3.3-10.6,1.9-3.9,4.1-7.5,7.6-10.2,2.1-1.6,4.2-3.3,6.9-3.7,1.3-.2,2.6-.3,3.9-.3,1.9,0,3.7.3,5.2.9.3.1.6.3.9.5,5.4,3,7.8,7.9,7.9,13.9.2,9.9-.1,19.9.5,29.8.3,4.5,1.3,8.9,2.7,13.2,1,3.1,2.6,6,4.3,8.8,3.9,6.1,9.2,10.5,15.7,13.6,5.1,2.4,10.6,3.4,16.2,4.2,1,.1,2.1,0,3.1.1h3.5c.5,0,.8-.1,1.2,0,4.1,0,8.1-.8,11.9-2.2,5.2-1.9,9.8-4.9,13.2-9.4,3.2-4.2,4.6-8.9,4.5-14.1,0-3-.7-5.9-1.8-8.7-2-4.7-5.2-8-10.4-8.8-2.5-.4-5,0-7.1,1.6-3.4,2.6-2.9,7.4,1,9.2.5.2,1,.4,1.4.6,1.2.5,2.3,1,3.5,1.6,3,1.5,3,4.6,1.7,6.9-1.1,1.8-2.7,2.9-4.6,3.6-3.2,1.1-6.4,1.5-9.8,1-4.5-.6-8-2.6-10.6-6.3-2.1-3-2.9-6.3-2.8-9.9,0-5.7,2.4-10.1,7.1-13.3,2.2-1.5,4.7-2.7,7.1-3.8,3.4-1.6,6.9-2.9,10.2-4.7,3.1-1.7,5.9-3.5,7.3-6.9,1.9-4.5,1.4-8.8-1.6-12.6-2.5-3.1-6.1-4.3-9.8-5.1-2.1-.4-4.2-.1-6.4-.2,1.6-1.1,3.1-2.2,4.7-2.9,2.8-1.3,5.8-2.4,9-2.1,2.3.2,4.6.3,6.6,1.3,1.9.9,3.9,1.7,5.2,3.3,2,2.6,3.1,5.5,3.1,8.8,0,15,0,30,0,45,0,2.6.3,5.1,1.3,7.5,1.1,2.5,2.8,4.3,5.5,5,4.7,1.2,9,.2,13.2-2,.3-.2.6-.4.8-.8v-.6c-.3-.2-.5,0-.8,0Z"/>
</svg>